<svg width="410" height="106" viewBox="0 0 410 106" fill="none" xmlns="http://www.w3.org/2000/svg">
<path d="M50.2639 23.7885C51.0358 23.6896 51.8077 23.619 52.5938 23.5837V14.6437C51.5861 14.4389 50.607 14.0222 49.7422 13.3867L48.1985 12.2498L50.2568 23.7956L50.2639 23.7885Z" fill="#232323"/>
<path d="M75.9132 72.988C75.3843 73.553 74.834 74.0967 74.2551 74.6263L92.1652 95.7124L97.2537 90.6845L75.9132 72.988Z" fill="#232323"/>
<path d="M60.6021 24.2752C61.3668 24.4447 62.1244 24.6353 62.8676 24.8684L70.3861 4.46021L63.1892 9.77763L60.6021 24.2752Z" fill="#232323"/>
<path d="M70.1451 28.2385C70.8026 28.6552 71.4458 29.1 72.0604 29.5661L90.1277 8.28936L84.8462 3.0708L70.1379 28.2385H70.1451Z" fill="#232323"/>
<path d="M55.4552 23.5847C56.2413 23.62 57.0203 23.6976 57.785 23.7894L59.8433 12.2437L58.2996 13.3806C57.4348 14.0232 56.4557 14.4328 55.448 14.6376V23.5776L55.4552 23.5847Z" fill="#232323"/>
<path d="M95.264 47.2488L83.5789 49.2825C83.6789 50.0452 83.7504 50.8078 83.7861 51.5846H92.8341C93.0413 50.5889 93.463 49.6215 94.1062 48.767L95.2569 47.2417L95.264 47.2488Z" fill="#232323"/>
<path d="M83.093 59.5007C82.9215 60.2563 82.7285 61.0049 82.4927 61.7393L103.147 69.1681L97.7655 62.057L83.093 59.5007Z" fill="#232323"/>
<path d="M79.0911 68.927C78.6695 69.5767 78.2193 70.2122 77.7476 70.8195L99.281 88.6714L104.563 83.4528L79.0911 68.9199V68.927Z" fill="#232323"/>
<path d="M72.0653 76.4421C71.4435 76.9082 70.8003 77.346 70.1499 77.7697L84.8581 102.937L90.1397 97.7189L72.0724 76.4421H72.0653Z" fill="#232323"/>
<path d="M80.521 66.4843L106.507 81.3067C108.094 78.8845 108.058 75.6927 106.271 73.2917L81.5145 64.387C81.2143 65.1002 80.8713 65.7993 80.5139 66.4772L80.521 66.4843Z" fill="#232323"/>
<path d="M67.6697 79.1816C66.9765 79.5347 66.2761 79.8666 65.5471 80.1703L74.5593 104.632C76.9892 106.397 80.2268 106.433 82.671 104.865L67.6697 79.1887V79.1816Z" fill="#232323"/>
<path d="M62.8676 81.1362C62.1244 81.3622 61.3668 81.5529 60.6021 81.7223L63.1892 96.227L70.3861 101.544L62.8676 81.1362Z" fill="#232323"/>
<path d="M83.5908 56.7174L95.2759 58.7511L94.1253 57.2258C93.4749 56.3713 93.0604 55.4039 92.8531 54.4082H83.8052C83.7695 55.185 83.6909 55.9547 83.598 56.7103L83.5908 56.7174Z" fill="#232323"/>
<path d="M67.6697 26.8177L82.671 1.14152C80.2196 -0.426161 76.9892 -0.390853 74.5593 1.37456L65.5471 25.8361C66.269 26.1327 66.9765 26.4717 67.6697 26.8247V26.8177Z" fill="#232323"/>
<path d="M77.7476 35.18C78.2193 35.7943 78.6623 36.4228 79.0911 37.0725L104.563 22.5396L99.281 17.321L77.7476 35.1729V35.18Z" fill="#232323"/>
<path d="M97.7655 43.9426L103.147 36.8315L82.4927 44.2604C82.7214 44.9948 82.9144 45.7433 83.093 46.4989L97.7727 43.9426H97.7655Z" fill="#232323"/>
<path d="M74.2551 31.381C74.8269 31.9036 75.3772 32.4473 75.9132 33.0193L97.2537 15.3228L92.1652 10.2949L74.2551 31.381Z" fill="#232323"/>
<path d="M81.5134 41.614L106.27 32.7093C108.057 30.3083 108.093 27.1094 106.506 24.6943L80.52 39.5167C80.8774 40.2017 81.2133 40.8938 81.5206 41.614H81.5134Z" fill="#232323"/>
<path d="M32.1459 33.0134C32.6748 32.4485 33.2251 31.9048 33.804 31.3751L15.894 10.2891L10.8054 15.317L32.1459 33.0134Z" fill="#232323"/>
<path d="M30.3002 70.8247C29.8285 70.2103 29.3854 69.5818 28.9565 68.9321L3.48511 83.465L8.76665 88.6836L30.3002 70.8317V70.8247Z" fill="#232323"/>
<path d="M37.6685 101.538L44.8654 96.2209L47.4525 81.7162C46.6878 81.5468 45.9302 81.3561 45.1869 81.1301L37.6685 101.538Z" fill="#232323"/>
<path d="M33.7945 74.6263C33.2228 74.1038 32.6725 73.56 32.1365 72.988L10.7959 90.6845L15.8845 95.7124L33.7945 74.6263Z" fill="#232323"/>
<path d="M24.9545 46.4989C25.126 45.7433 25.319 44.9948 25.5548 44.2604L4.90039 36.8315L10.282 43.9426L24.9616 46.4989H24.9545Z" fill="#232323"/>
<path d="M25.5548 61.7393C25.3261 61.0049 25.1332 60.2563 24.9545 59.5007L10.282 62.057L4.90039 69.1681L25.5548 61.7393Z" fill="#232323"/>
<path d="M45.1809 24.8684C45.9241 24.6424 46.6817 24.4517 47.4464 24.2752L44.8593 9.77763L37.6624 4.46021L45.1809 24.8684Z" fill="#232323"/>
<path d="M57.79 82.2107C57.0182 82.3095 56.2464 82.3802 55.4602 82.4155V91.3555C56.4679 91.5603 57.447 91.9769 58.3118 92.6125L59.8555 93.7494L57.7972 82.2036L57.79 82.2107Z" fill="#232323"/>
<path d="M52.5986 82.4145C51.8125 82.3792 51.0335 82.3015 50.2687 82.2097L48.2104 93.7555L49.7542 92.6186C50.6189 91.976 51.598 91.5664 52.6057 91.3616V82.4216L52.5986 82.4145Z" fill="#232323"/>
<path d="M37.9055 77.7697C37.248 77.3531 36.6047 76.9082 35.9901 76.4421L17.9229 97.7189L23.2044 102.937L37.9126 77.7697H37.9055Z" fill="#232323"/>
<path d="M26.5343 64.3928L1.77753 73.2976C-0.00918555 75.6985 -0.0448885 78.8904 1.54172 81.3125L27.5277 66.4901C27.1704 65.8051 26.8344 65.1131 26.5271 64.3999L26.5343 64.3928Z" fill="#232323"/>
<path d="M24.4627 49.2816L12.7776 47.2478L13.9282 48.7731C14.5786 49.6276 14.9931 50.595 15.2004 51.5907H24.2483C24.284 50.8139 24.3627 50.0442 24.4556 49.2886L24.4627 49.2816Z" fill="#232323"/>
<path d="M28.9595 37.0718C29.3811 36.4221 29.8314 35.7865 30.3031 35.1792L8.76958 17.3274L3.48804 22.546L28.9595 37.0788V37.0718Z" fill="#232323"/>
<path d="M40.3768 79.1792L25.3755 104.855C27.8269 106.423 31.0572 106.388 33.4872 104.622L42.4994 80.1607C41.7776 79.8642 41.07 79.5252 40.3768 79.1721V79.1792Z" fill="#232323"/>
<path d="M24.4621 56.7191C24.3621 55.9564 24.2906 55.1938 24.2549 54.417H15.207C14.9997 55.4127 14.578 56.3801 13.9348 57.2346L12.7842 58.7599L24.4693 56.7262L24.4621 56.7191Z" fill="#232323"/>
<path d="M35.9817 29.5602C36.6035 29.0942 37.2467 28.6564 37.897 28.2327L23.1888 3.06494L17.9072 8.2835L35.9745 29.5602H35.9817Z" fill="#232323"/>
<path d="M40.3768 26.8186C41.07 26.4656 41.7704 26.1337 42.4994 25.83L33.4872 1.36846C31.0572 -0.396957 27.8197 -0.432265 25.3755 1.13542L40.3768 26.8116V26.8186Z" fill="#232323"/>
<path d="M27.5277 39.5167L1.54172 24.6943C-0.0448885 27.1165 -0.00918555 30.3083 1.77753 32.7093L26.5343 41.614C26.8345 40.9008 27.1775 40.2017 27.5349 39.5167H27.5277Z" fill="#232323"/>
<path d="M129.434 43.994V63H126.106V43.994H129.434ZM137.858 47.062H126.366V43.994H137.858V47.062ZM136.506 55.226H126.314V52.236H136.506V55.226ZM143.902 63H140.47L147.334 43.994H150.74L157.604 63H154.094L152.56 58.606H145.462L143.902 63ZM148.608 49.662L146.424 55.798H151.598L149.414 49.662C149.345 49.402 149.267 49.142 149.18 48.882C149.093 48.622 149.041 48.3967 149.024 48.206C148.989 48.3793 148.929 48.6047 148.842 48.882C148.773 49.142 148.695 49.402 148.608 49.662ZM161.495 49.298C161.495 48.1887 161.781 47.2093 162.353 46.36C162.925 45.5107 163.714 44.852 164.719 44.384C165.742 43.8987 166.921 43.656 168.255 43.656C169.538 43.656 170.647 43.8813 171.583 44.332C172.537 44.7827 173.273 45.424 173.793 46.256C174.331 47.088 174.617 48.076 174.651 49.22H171.323C171.289 48.4053 170.994 47.7727 170.439 47.322C169.885 46.854 169.139 46.62 168.203 46.62C167.181 46.62 166.357 46.854 165.733 47.322C165.127 47.7727 164.823 48.3967 164.823 49.194C164.823 49.87 165.005 50.4073 165.369 50.806C165.751 51.1873 166.34 51.4733 167.137 51.664L170.127 52.34C171.757 52.6867 172.97 53.2847 173.767 54.134C174.565 54.966 174.963 56.0927 174.963 57.514C174.963 58.6753 174.677 59.698 174.105 60.582C173.533 61.466 172.719 62.1507 171.661 62.636C170.621 63.104 169.399 63.338 167.995 63.338C166.661 63.338 165.491 63.1127 164.485 62.662C163.48 62.194 162.691 61.544 162.119 60.712C161.565 59.88 161.27 58.9007 161.235 57.774H164.563C164.581 58.5713 164.893 59.204 165.499 59.672C166.123 60.1227 166.964 60.348 168.021 60.348C169.131 60.348 170.006 60.1227 170.647 59.672C171.306 59.204 171.635 58.5887 171.635 57.826C171.635 57.1673 171.462 56.6473 171.115 56.266C170.769 55.8673 170.205 55.59 169.425 55.434L166.409 54.758C164.797 54.4113 163.575 53.7873 162.743 52.886C161.911 51.9673 161.495 50.7713 161.495 49.298ZM179.66 49.298C179.66 48.1887 179.946 47.2093 180.518 46.36C181.09 45.5107 181.878 44.852 182.884 44.384C183.906 43.8987 185.085 43.656 186.42 43.656C187.702 43.656 188.812 43.8813 189.748 44.332C190.701 44.7827 191.438 45.424 191.958 46.256C192.495 47.088 192.781 48.076 192.816 49.22H189.488C189.453 48.4053 189.158 47.7727 188.604 47.322C188.049 46.854 187.304 46.62 186.368 46.62C185.345 46.62 184.522 46.854 183.898 47.322C183.291 47.7727 182.988 48.3967 182.988 49.194C182.988 49.87 183.17 50.4073 183.534 50.806C183.915 51.1873 184.504 51.4733 185.302 51.664L188.292 52.34C189.921 52.6867 191.134 53.2847 191.932 54.134C192.729 54.966 193.128 56.0927 193.128 57.514C193.128 58.6753 192.842 59.698 192.27 60.582C191.698 61.466 190.883 62.1507 189.826 62.636C188.786 63.104 187.564 63.338 186.16 63.338C184.825 63.338 183.655 63.1127 182.65 62.662C181.644 62.194 180.856 61.544 180.284 60.712C179.729 59.88 179.434 58.9007 179.4 57.774H182.728C182.745 58.5713 183.057 59.204 183.664 59.672C184.288 60.1227 185.128 60.348 186.186 60.348C187.295 60.348 188.17 60.1227 188.812 59.672C189.47 59.204 189.8 58.5887 189.8 57.826C189.8 57.1673 189.626 56.6473 189.28 56.266C188.933 55.8673 188.37 55.59 187.59 55.434L184.574 54.758C182.962 54.4113 181.74 53.7873 180.908 52.886C180.076 51.9673 179.66 50.7713 179.66 49.298ZM210.542 63H198.738V43.994H210.542V47.062H200.896L202.066 45.996V51.95H209.658V54.888H202.066V60.998L200.896 59.932H210.542V63ZM223.953 45.58V63H220.625V45.58H223.953ZM215.061 47.062V43.994H229.517V47.062H215.061ZM233.569 49.298C233.569 48.1887 233.855 47.2093 234.427 46.36C234.999 45.5107 235.788 44.852 236.793 44.384C237.816 43.8987 238.994 43.656 240.329 43.656C241.612 43.656 242.721 43.8813 243.657 44.332C244.61 44.7827 245.347 45.424 245.867 46.256C246.404 47.088 246.69 48.076 246.725 49.22H243.397C243.362 48.4053 243.068 47.7727 242.513 47.322C241.958 46.854 241.213 46.62 240.277 46.62C239.254 46.62 238.431 46.854 237.807 47.322C237.2 47.7727 236.897 48.3967 236.897 49.194C236.897 49.87 237.079 50.4073 237.443 50.806C237.824 51.1873 238.414 51.4733 239.211 51.664L242.201 52.34C243.83 52.6867 245.044 53.2847 245.841 54.134C246.638 54.966 247.037 56.0927 247.037 57.514C247.037 58.6753 246.751 59.698 246.179 60.582C245.607 61.466 244.792 62.1507 243.735 62.636C242.695 63.104 241.473 63.338 240.069 63.338C238.734 63.338 237.564 63.1127 236.559 62.662C235.554 62.194 234.765 61.544 234.193 60.712C233.638 59.88 233.344 58.9007 233.309 57.774H236.637C236.654 58.5713 236.966 59.204 237.573 59.672C238.197 60.1227 239.038 60.348 240.095 60.348C241.204 60.348 242.08 60.1227 242.721 59.672C243.38 59.204 243.709 58.5887 243.709 57.826C243.709 57.1673 243.536 56.6473 243.189 56.266C242.842 55.8673 242.279 55.59 241.499 55.434L238.483 54.758C236.871 54.4113 235.649 53.7873 234.817 52.886C233.985 51.9673 233.569 50.7713 233.569 49.298Z" fill="#232323"/>
</svg>
