<svg width="85" height="83" viewBox="0 0 85 83" fill="none" xmlns="http://www.w3.org/2000/svg">
<path d="M40.611 22.2616C41.1002 22.1981 41.5895 22.1528 42.0878 22.1302V16.395C41.4491 16.2636 40.8284 15.9963 40.2803 15.5886L39.3018 14.8593L40.6065 22.2661L40.611 22.2616Z" fill="#E62058"/>
<path d="M56.8801 53.8235C56.5449 54.1859 56.196 54.5347 55.8291 54.8745L67.1817 68.4016L70.4072 65.1761L56.8801 53.8235Z" fill="#E62058"/>
<path d="M47.1621 22.5728C47.6468 22.6815 48.1271 22.8038 48.5982 22.9533L53.3639 9.86108L48.802 13.2723L47.1621 22.5728Z" fill="#E62058"/>
<path d="M53.2145 25.1133C53.6313 25.3806 54.039 25.666 54.4286 25.965L65.8809 12.3156L62.5331 8.96777L53.21 25.1133H53.2145Z" fill="#E62058"/>
<path d="M43.9069 22.1287C44.4052 22.1514 44.899 22.2012 45.3837 22.2601L46.6884 14.8533L45.7099 15.5826C45.1617 15.9949 44.5411 16.2576 43.9023 16.389V22.1242L43.9069 22.1287Z" fill="#E62058"/>
<path d="M69.1402 37.3126L61.7334 38.6173C61.7968 39.1066 61.8421 39.5958 61.8648 40.0942H67.6C67.7314 39.4554 67.9986 38.8348 68.4063 38.2866L69.1357 37.3081L69.1402 37.3126Z" fill="#E62058"/>
<path d="M61.4255 45.1704C61.3167 45.6551 61.1944 46.1353 61.0449 46.6065L74.1372 51.3722L70.7259 46.8103L61.4255 45.1704Z" fill="#E62058"/>
<path d="M58.878 51.2173C58.6107 51.6341 58.3254 52.0418 58.0264 52.4314L71.6758 63.8837L75.0236 60.5359L58.878 51.2128V51.2173Z" fill="#E62058"/>
<path d="M54.4358 56.0388C54.0416 56.3378 53.6339 56.6187 53.2217 56.8905L62.5448 73.0361L65.8926 69.6883L54.4403 56.0388H54.4358Z" fill="#E62058"/>
<path d="M59.7936 49.6517L76.2653 59.1605C77.271 57.6067 77.2484 55.559 76.1158 54.0188L60.4233 48.3062C60.233 48.7638 60.0156 49.2122 59.7891 49.6471L59.7936 49.6517Z" fill="#E62058"/>
<path d="M51.6453 57.7953C51.2058 58.0219 50.7619 58.2348 50.2998 58.4296L56.0124 74.1221C57.5526 75.2547 59.6048 75.2773 61.1541 74.2716L51.6453 57.7999V57.7953Z" fill="#E62058"/>
<path d="M48.5982 59.0509C48.1271 59.1959 47.6468 59.3182 47.1621 59.4269L48.802 68.7319L53.3639 72.1431L48.5982 59.0509Z" fill="#E62058"/>
<path d="M61.7334 43.3862L69.1402 44.6909L68.4109 43.7124C67.9986 43.1642 67.7359 42.5436 67.6045 41.9048H61.8693C61.8466 42.4032 61.7968 42.897 61.7379 43.3817L61.7334 43.3862Z" fill="#E62058"/>
<path d="M51.6453 24.2032L61.1541 7.73145C59.6003 6.72575 57.5526 6.7484 56.0124 7.88094L50.2998 23.5735C50.7574 23.7638 51.2058 23.9812 51.6453 24.2077V24.2032Z" fill="#E62058"/>
<path d="M58.0264 29.5696C58.3254 29.9637 58.6062 30.3669 58.878 30.7837L75.0236 21.4606L71.6758 18.1128L58.0264 29.5651V29.5696Z" fill="#E62058"/>
<path d="M70.7259 35.1909L74.1372 30.629L61.0449 35.3948C61.1899 35.8659 61.3122 36.3461 61.4255 36.8308L70.7305 35.1909H70.7259Z" fill="#E62058"/>
<path d="M55.8291 27.1338C56.1915 27.469 56.5403 27.8179 56.8801 28.1848L70.4072 16.8322L67.1817 13.6067L55.8291 27.1338Z" fill="#E62058"/>
<path d="M60.4188 33.6966L76.1113 27.984C77.2439 26.4438 77.2665 24.3916 76.2608 22.8423L59.7891 32.3511C60.0156 32.7906 60.2285 33.2345 60.4233 33.6966H60.4188Z" fill="#E62058"/>
<path d="M29.1306 28.1787C29.4659 27.8163 29.8147 27.4675 30.1816 27.1277L18.829 13.6006L15.6035 16.8261L29.1306 28.1787Z" fill="#E62058"/>
<path d="M27.966 52.4359C27.667 52.0418 27.3861 51.6386 27.1143 51.2218L10.9688 60.5449L14.3166 63.8927L27.966 52.4404V52.4359Z" fill="#E62058"/>
<path d="M32.626 72.1401L37.1879 68.7289L38.8278 59.4239C38.3431 59.3151 37.8628 59.1928 37.3917 59.0479L32.626 72.1401Z" fill="#E62058"/>
<path d="M30.169 54.8745C29.8066 54.5393 29.4577 54.1904 29.118 53.8235L15.5908 65.1761L18.8163 68.4016L30.169 54.8745Z" fill="#E62058"/>
<path d="M24.572 36.8308C24.6808 36.3461 24.8031 35.8659 24.9526 35.3948L11.8604 30.629L15.2716 35.1909L24.5766 36.8308H24.572Z" fill="#E62058"/>
<path d="M24.9526 46.6065C24.8076 46.1353 24.6853 45.6551 24.572 45.1704L15.2716 46.8103L11.8604 51.3722L24.9526 46.6065Z" fill="#E62058"/>
<path d="M37.3917 22.9534C37.8629 22.8085 38.3431 22.6862 38.8278 22.5729L37.1879 13.2724L32.626 9.86121L37.3917 22.9534Z" fill="#E62058"/>
<path d="M45.3782 59.7407C44.8889 59.8042 44.3997 59.8495 43.9014 59.8721V65.6073C44.5401 65.7387 45.1608 66.006 45.7089 66.4137L46.6874 67.1431L45.3827 59.7362L45.3782 59.7407Z" fill="#E62058"/>
<path d="M42.0833 59.8704C41.585 59.8477 41.0912 59.7979 40.6065 59.739L39.3018 67.1459L40.2803 66.4165C40.8284 66.0043 41.449 65.7415 42.0878 65.6101V59.8749L42.0833 59.8704Z" fill="#E62058"/>
<path d="M32.7846 56.8905C32.3678 56.6232 31.96 56.3378 31.5704 56.0388L20.1182 69.6883L23.466 73.0361L32.7891 56.8905H32.7846Z" fill="#E62058"/>
<path d="M25.5704 48.3096L9.87788 54.0221C8.74533 55.5624 8.7227 57.61 9.7284 59.1639L26.2001 49.655C25.9736 49.2156 25.7607 48.7716 25.5659 48.3141L25.5704 48.3096Z" fill="#E62058"/>
<path d="M24.2545 38.6159L16.8477 37.3112L17.577 38.2897C17.9893 38.8378 18.252 39.4585 18.3834 40.0972H24.1186C24.1412 39.5989 24.1911 39.1051 24.25 38.6204L24.2545 38.6159Z" fill="#E62058"/>
<path d="M27.1143 30.7821C27.3816 30.3653 27.667 29.9576 27.966 29.568L14.3166 18.1157L10.9688 21.4635L27.1143 30.7866V30.7821Z" fill="#E62058"/>
<path d="M34.3477 57.7968L24.8389 74.2685C26.3927 75.2742 28.4404 75.2516 29.9806 74.119L35.6932 58.4265C35.2356 58.2362 34.7871 58.0187 34.3477 57.7922V57.7968Z" fill="#E62058"/>
<path d="M24.25 43.3847C24.1865 42.8954 24.1412 42.4062 24.1186 41.9078H18.3834C18.252 42.5466 17.9847 43.1672 17.577 43.7154L16.8477 44.6939L24.2545 43.3892L24.25 43.3847Z" fill="#E62058"/>
<path d="M31.5633 25.9621C31.9574 25.6631 32.3651 25.3822 32.7774 25.1104L23.4543 8.96484L20.1064 12.3126L31.5588 25.9621H31.5633Z" fill="#E62058"/>
<path d="M34.3477 24.2047C34.7871 23.9782 35.2311 23.7652 35.6932 23.5704L29.9806 7.87789C28.4404 6.74534 26.3882 6.72269 24.8389 7.72839L34.3477 24.2001V24.2047Z" fill="#E62058"/>
<path d="M26.2001 32.3511L9.7284 22.8423C8.7227 24.3961 8.74533 26.4438 9.87788 27.984L25.5704 33.6966C25.7607 33.2391 25.9782 32.7906 26.2047 32.3511H26.2001Z" fill="#E62058"/>
</svg>
