<svg width="85" height="83" viewBox="0 0 85 83" fill="none" xmlns="http://www.w3.org/2000/svg">
<path d="M28.9356 46.3446C28.7903 45.8724 28.6677 45.3911 28.5542 44.9053L9.3125 48.2969C9.83917 49.8815 10.493 51.3798 11.224 52.7873L28.9356 46.3401V46.3446Z" fill="#E62058"/>
<path d="M30.2051 49.3965C29.978 48.9561 29.7646 48.5112 29.5694 48.0526L12.1211 54.4045C12.952 55.8256 13.8419 57.1377 14.7363 58.3318L30.2051 49.4011V49.3965Z" fill="#E62058"/>
<path d="M28.5603 36.548C28.6693 36.0622 28.7919 35.581 28.9417 35.1088L11.0712 28.6025C10.3129 29.9873 9.64552 31.4902 9.12793 33.1201L28.5649 36.548H28.5603Z" fill="#E62058"/>
<path d="M28.2625 43.1162C28.199 42.6259 28.1536 42.1355 28.1309 41.6361H8.05371C8.14452 43.3387 8.41239 44.9823 8.81648 46.5442L28.2625 43.1162Z" fill="#E62058"/>
<path d="M42.8499 59.1968C42.3641 59.0878 41.8828 58.9652 41.4106 58.8199L35.2812 75.6553C36.6887 76.1457 38.1825 76.5271 39.7534 76.7541L42.8499 59.1968Z" fill="#E62058"/>
<path d="M29.5599 33.4047C29.7506 32.9461 29.9685 32.4966 30.1956 32.0562L14.863 23.2026C13.8869 24.3286 12.9107 25.5999 12.0117 27.0119L29.5645 33.4001L29.5599 33.4047Z" fill="#E62058"/>
<path d="M39.7116 58.1977C39.253 58.007 38.8035 57.7891 38.3631 57.5621L29.5459 72.8356C30.8081 73.6392 32.1566 74.3702 33.5958 74.9922L39.7116 58.1932V58.1977Z" fill="#E62058"/>
<path d="M31.9712 52.1889C31.6716 51.7939 31.3901 51.3898 31.1177 50.9721L15.8623 59.7803C16.9338 61.1106 17.9645 62.2593 18.8362 63.2082L31.9667 52.1889H31.9712Z" fill="#E62058"/>
<path d="M36.7861 56.6536C36.3683 56.3857 35.9597 56.0997 35.5693 55.8L24.5137 68.976C25.5897 69.943 26.7657 70.9056 28.0324 71.8136L36.7861 56.6491V56.6536Z" fill="#E62058"/>
<path d="M28.118 39.8207C28.1407 39.3213 28.1906 38.8264 28.2497 38.3406L8.63562 34.8809C8.43585 35.7208 8.27696 36.5925 8.16799 37.4961C8.07264 38.2815 8.01816 39.0579 8 39.8207H28.1135H28.118Z" fill="#E62058"/>
<path d="M33.1317 53.5799L20.0693 64.5401C20.9865 65.5208 22.0217 66.6151 23.184 67.7365L34.1805 54.6332C33.8173 54.2973 33.4677 53.9477 33.1272 53.5799H33.1317Z" fill="#E62058"/>
<path d="M58.4883 55.8C58.0933 56.0997 57.6892 56.3812 57.2715 56.6536L63.5916 67.5957C64.4724 66.7149 65.3123 65.8023 66.1023 64.867L58.4928 55.8H58.4883Z" fill="#E62058"/>
<path d="M31.1131 30.4867C31.381 30.0689 31.667 29.6603 31.9667 29.2699L19.3719 18.7001C18.4502 19.5355 17.3152 20.5752 16.1211 21.8283L31.1176 30.4867H31.1131Z" fill="#E62058"/>
<path d="M38.3501 23.8931C38.7905 23.6661 39.2354 23.4527 39.6986 23.2575L34.5726 9.16895C33.3013 9.69108 32.0527 10.2586 30.8359 10.8716L38.3546 23.8886L38.3501 23.8931Z" fill="#E62058"/>
<path d="M35.5593 25.6539C35.9543 25.3542 36.3583 25.0727 36.776 24.8003L29.221 11.7197C27.9861 12.3962 26.792 13.1091 25.6523 13.8537L35.5547 25.6539H35.5593Z" fill="#E62058"/>
<path d="M33.118 27.8759C33.454 27.5127 33.8036 27.1631 34.1714 26.8226L24.1464 14.8726C22.9387 15.7216 21.7946 16.5979 20.7412 17.4832L33.1226 27.8714L33.118 27.8759Z" fill="#E62058"/>
<path d="M42.8475 22.2633L40.205 7.27124C38.8792 7.62538 37.5625 8.04309 36.2686 8.51982L41.4082 22.6446C41.8804 22.4994 42.3616 22.3768 42.8475 22.2633Z" fill="#E62058"/>
<path d="M46.1052 21.8166V6.17078C44.7204 6.31153 43.3402 6.53854 41.96 6.84274L44.6251 21.9483C45.1155 21.8847 45.6058 21.8393 46.1052 21.8166Z" fill="#E62058"/>
<path d="M55.6994 57.5621C55.259 57.7891 54.814 58.0025 54.3555 58.1977L59.1636 71.4009C60.2352 70.6154 61.2612 69.7754 62.2419 68.8855L55.7039 57.5621H55.6994Z" fill="#E62058"/>
<path d="M62.9395 50.9667C62.6716 51.3844 62.3856 51.793 62.0859 52.1835L70.2539 59.0393C70.8442 58.0586 71.3799 57.0824 71.8612 56.1199L62.9395 50.9667Z" fill="#E62058"/>
<path d="M64.4999 48.0526C64.3092 48.5112 64.0913 48.9607 63.8643 49.4011L72.6497 54.4726C73.0947 53.4556 73.4851 52.4476 73.8211 51.4487L64.4954 48.0572L64.4999 48.0526Z" fill="#E62058"/>
<path d="M60.9274 53.5799C60.5914 53.9431 60.2418 54.2927 59.874 54.6332L67.2565 63.4323C67.9784 62.497 68.6595 61.5526 69.286 60.5992L60.9274 53.5844V53.5799Z" fill="#E62058"/>
<path d="M65.4927 44.9053C65.3838 45.3911 65.2612 45.8724 65.1113 46.3446L74.3508 49.709C74.6459 48.6556 74.8866 47.6159 75.0818 46.5989L65.4882 44.9053H65.4927Z" fill="#E62058"/>
<path d="M47.9355 21.8153C48.435 21.838 48.9299 21.888 49.4157 21.947L52.2034 6.14228C50.7959 6.00153 49.3703 5.96521 47.9355 6.03331V21.8153Z" fill="#E62058"/>
<path d="M46.1125 59.6374C45.6131 59.6147 45.1182 59.5648 44.6324 59.5057L41.5586 76.9404C41.7175 76.9495 41.8764 76.9677 42.0353 76.9722C43.4246 77.0403 44.7822 76.9813 46.1125 76.8178V59.6374Z" fill="#E62058"/>
<path d="M65.9354 41.6361C65.9127 42.1355 65.8627 42.6304 65.8037 43.1162L75.3792 44.8052C75.5335 43.7156 75.6334 42.6577 75.6924 41.6361H65.9354Z" fill="#E62058"/>
<path d="M75.6607 36.6076L65.8037 38.3465C65.8673 38.8369 65.9127 39.3272 65.9354 39.8267H75.7515C75.7651 38.6961 75.7288 37.6201 75.6607 36.6076Z" fill="#E62058"/>
<path d="M62.0967 29.2689C62.3963 29.6639 62.6778 30.068 62.9503 30.4857L73.1659 24.5878C72.7936 23.4846 72.3532 22.3132 71.8174 21.11L62.0967 29.2643V29.2689Z" fill="#E62058"/>
<path d="M55.7039 23.8952L63.5132 10.3651C63.15 10.1018 62.7822 9.84297 62.3963 9.59326C61.5655 9.06204 60.7119 8.59439 59.8401 8.19031L54.3555 23.2595C54.814 23.4502 55.2635 23.6681 55.6994 23.8952H55.7039Z" fill="#E62058"/>
<path d="M58.4928 25.6586L67.8458 14.5122C66.9923 13.4589 66.0297 12.4464 64.9491 11.5111L57.2715 24.8051C57.6892 25.0729 58.0978 25.359 58.4883 25.6586H58.4928Z" fill="#E62058"/>
<path d="M52.6502 58.8163C52.178 58.9616 51.6967 59.0842 51.2109 59.1932L53.9124 74.5257C55.1928 73.9264 56.4277 73.2317 57.6127 72.4599L52.6457 58.8118L52.6502 58.8163Z" fill="#E62058"/>
<path d="M64.4999 33.4055L74.6157 29.7233C74.602 29.6734 74.593 29.6235 74.5793 29.578C74.366 28.7063 74.089 27.6076 73.7258 26.3635L63.8643 32.057C64.0913 32.4975 64.3047 32.9424 64.4999 33.4055Z" fill="#E62058"/>
<path d="M59.874 26.8297C60.2372 27.1656 60.5869 27.5152 60.9274 27.883L71.0068 19.4245C70.4211 18.2803 69.7401 17.1271 68.9591 16.0056L59.8786 26.8297H59.874Z" fill="#E62058"/>
<path d="M75.5047 34.7876C75.3685 33.5617 75.1869 32.463 75.0053 31.514L65.1211 35.1145C65.2664 35.5867 65.389 36.0679 65.5025 36.5538L75.5093 34.7876H75.5047Z" fill="#E62058"/>
<path d="M51.2109 22.2605C51.6967 22.3695 52.178 22.4921 52.6502 22.6419L58.1621 7.50007C56.8091 7.00063 55.4243 6.63287 54.0123 6.3877L51.2155 22.2605H51.2109Z" fill="#E62058"/>
<path d="M49.4157 59.5057C48.9253 59.5693 48.435 59.6147 47.9355 59.6374V76.5136C49.3975 76.2185 50.8232 75.8008 52.1943 75.2651L49.4157 59.5057Z" fill="#E62058"/>
</svg>
