<svg width="85" height="83" viewBox="0 0 85 83" fill="none" xmlns="http://www.w3.org/2000/svg">
<path d="M36.4123 23.5745C36.8828 23.4297 37.3625 23.3075 37.8466 23.1944L36.4711 15.3801C35.5028 15.5204 34.5571 15.6969 33.625 15.905L36.4168 23.5745H36.4123Z" fill="#E62058"/>
<path d="M33.3548 24.8228C33.7937 24.5966 34.2372 24.3839 34.6987 24.1893L31.839 16.3344C30.8617 16.5968 29.9024 16.8864 28.9658 17.2122L33.3594 24.8228H33.3548Z" fill="#E62058"/>
<path d="M45.7364 15.1629C44.8043 15.0724 43.8587 15.0226 42.8994 15V22.7509C43.3971 22.7735 43.8903 22.8233 44.3745 22.8821L45.7364 15.1629Z" fill="#E62058"/>
<path d="M46.1592 23.1944C46.6433 23.303 47.123 23.4252 47.5935 23.5745L50.3853 15.905C49.4532 15.7014 48.503 15.5204 47.5392 15.3801L46.1637 23.1944H46.1592Z" fill="#E62058"/>
<path d="M23.5973 37.4331C23.7059 36.949 23.8281 36.4693 23.9774 35.9988L8.85565 30.4921C7.58419 31.7817 6.44848 33.0441 5.43945 34.2296L23.6019 37.4331H23.5973Z" fill="#E62058"/>
<path d="M26.1298 31.3937C26.3967 30.9774 26.6818 30.5702 26.9804 30.181L18.1074 22.7378C17.035 23.4618 16.0079 24.2174 15.0215 24.9821L26.1298 31.3937Z" fill="#E62058"/>
<path d="M24.597 34.3005C24.787 33.8435 25.0042 33.3956 25.2304 32.9566L13.5204 26.1967C12.3711 27.1514 11.2942 28.1242 10.2852 29.088L24.6015 34.296L24.597 34.3005Z" fill="#E62058"/>
<path d="M28.1509 28.7924C28.4857 28.4304 28.8341 28.082 29.2006 27.7427L22.6849 19.9736C21.6578 20.5211 20.6669 21.0958 19.7031 21.6976L28.1554 28.7879L28.1509 28.7924Z" fill="#E62058"/>
<path d="M30.5876 26.581C30.9812 26.2824 31.3884 26.0019 31.8002 25.7304L27.2528 17.8573C26.2574 18.251 25.2845 18.6808 24.3389 19.1378L30.583 26.581H30.5876Z" fill="#E62058"/>
<path d="M60.4019 37.4331L78.5643 34.2296C77.5598 33.0441 76.4196 31.7862 75.1481 30.4921L60.0264 35.9988C60.1712 36.4693 60.2933 36.949 60.4064 37.4331H60.4019Z" fill="#E62058"/>
<path d="M23.1532 42.5063H1C1.12217 43.1036 1.36198 43.6828 1.72849 44.1986C2.35743 45.0855 3.15379 46.1669 4.11304 47.3614L23.2845 43.9814C23.2211 43.4927 23.1759 43.0041 23.1532 42.5063Z" fill="#E62058"/>
<path d="M23.1532 40.6954C23.1759 40.1977 23.2256 39.7045 23.2845 39.2203L4.11304 35.8403C3.15379 37.0349 2.35743 38.1163 1.72849 39.0031C1.36198 39.5235 1.12217 40.0981 1 40.6954H23.1532Z" fill="#E62058"/>
<path d="M60.847 42.5063C60.8244 43.0041 60.7746 43.4973 60.7158 43.9814L79.8872 47.3614C80.8465 46.1669 81.6428 45.0855 82.2718 44.1986C82.6383 43.6783 82.8781 43.1036 83.0003 42.5063H60.847Z" fill="#E62058"/>
<path d="M57.0195 30.181C57.3182 30.5747 57.5987 30.9774 57.8702 31.3937L68.9785 24.9821C67.9921 24.2129 66.9695 23.4618 65.8926 22.7378L57.0195 30.181Z" fill="#E62058"/>
<path d="M58.7803 32.9576C59.0065 33.3965 59.2192 33.8399 59.4137 34.3015L73.7256 29.0935C72.7165 28.1252 71.6397 27.1569 70.4904 26.2021L58.7803 32.9621V32.9576Z" fill="#E62058"/>
<path d="M54.8096 27.7462C55.1716 28.081 55.52 28.4294 55.8593 28.7959L64.3116 21.7056C63.3478 21.1038 62.3569 20.5292 61.3298 19.9817L54.8141 27.7507L54.8096 27.7462Z" fill="#E62058"/>
<path d="M52.2116 25.7331C52.6278 26 53.0351 26.2851 53.4242 26.5837L59.6684 19.1405C58.7227 18.6835 57.7499 18.2536 56.7544 17.86L52.207 25.7331H52.2116Z" fill="#E62058"/>
<path d="M49.2979 24.1948C49.7549 24.3849 50.2028 24.6021 50.6417 24.8283L55.0353 17.2176C54.0986 16.8919 53.1394 16.6023 52.162 16.3398L49.3024 24.1948H49.2979Z" fill="#E62058"/>
<path d="M50.6417 58.373C50.2028 58.5993 49.7594 58.8119 49.2979 59.0065L52.1575 66.8615C53.1348 66.5991 54.0941 66.3095 55.0307 65.9837L50.6372 58.373H50.6417Z" fill="#E62058"/>
<path d="M53.4304 56.6177C53.0368 56.9164 52.6295 57.1969 52.2178 57.4684L56.7652 65.3415C57.7606 64.9433 58.7334 64.518 59.6791 64.061L53.4349 56.6177H53.4304Z" fill="#E62058"/>
<path d="M55.8593 54.4058C55.5245 54.7677 55.1761 55.1161 54.8096 55.4555L61.3252 63.2245C62.3524 62.677 63.3433 62.1024 64.307 61.5006L55.8548 54.4103L55.8593 54.4058Z" fill="#E62058"/>
<path d="M47.5935 59.6271C47.123 59.7719 46.6433 59.8941 46.1592 60.0027L47.5347 67.817C48.503 67.6767 49.4487 67.5002 50.3808 67.2921L47.589 59.6226L47.5935 59.6271Z" fill="#E62058"/>
<path d="M57.8702 51.8055C57.6032 52.2218 57.3182 52.629 57.0195 53.0181L65.8926 60.4614C66.965 59.7374 67.9921 58.9818 68.9785 58.2171L57.8702 51.8055Z" fill="#E62058"/>
<path d="M44.3745 60.3144C43.8858 60.3777 43.3971 60.423 42.8994 60.4456V68.1965C43.8587 68.1739 44.8089 68.1241 45.7364 68.0336L44.3745 60.3144Z" fill="#E62058"/>
<path d="M79.8872 35.8348L60.7158 39.2148C60.7792 39.7035 60.8244 40.1922 60.847 40.6899H83.0003C82.8781 40.0926 82.6383 39.5135 82.2718 38.9976C81.6428 38.1108 80.8465 37.0294 79.8872 35.8348Z" fill="#E62058"/>
<path d="M60.4064 45.7629C60.2979 46.247 60.1757 46.7267 60.0264 47.1972L75.1481 52.7039C76.4196 51.4143 77.5598 50.1519 78.5643 48.9664L60.4019 45.7629H60.4064Z" fill="#E62058"/>
<path d="M23.9722 47.1972C23.8274 46.7267 23.7052 46.247 23.5921 45.7629L5.42969 48.9664C6.43418 50.1519 7.57443 51.4098 8.84588 52.7039L23.9676 47.1972H23.9722Z" fill="#E62058"/>
<path d="M59.4137 48.899C59.2237 49.356 59.0065 49.8039 58.7803 50.2428L70.4904 57.0028C71.6397 56.0481 72.7165 55.0753 73.7256 54.1115L59.4092 48.9035L59.4137 48.899Z" fill="#E62058"/>
<path d="M41.0987 15.0027C40.1395 15.0253 39.1893 15.0751 38.2617 15.1656L39.6237 22.8848C40.1123 22.8215 40.601 22.7762 41.0987 22.7536V15.0027Z" fill="#E62058"/>
<path d="M29.1934 55.4554C28.8314 55.1206 28.483 54.7722 28.1437 54.4057L19.6914 61.496C20.6552 62.0978 21.6461 62.6724 22.6732 63.2199L29.1889 55.4509L29.1934 55.4554Z" fill="#E62058"/>
<path d="M25.2242 50.2383C24.998 49.7994 24.7853 49.356 24.5908 48.899L10.2744 54.107C11.2834 55.0753 12.3603 56.0436 13.5096 56.9983L25.2197 50.2383H25.2242Z" fill="#E62058"/>
<path d="M31.7957 57.4684C31.3794 57.2014 30.9722 56.9164 30.583 56.6177L24.3389 64.061C25.2845 64.518 26.2574 64.9478 27.2528 65.3415L31.8002 57.4684H31.7957Z" fill="#E62058"/>
<path d="M26.9804 53.0209C26.6818 52.6272 26.4013 52.2245 26.1298 51.8082L15.0215 58.2198C16.0079 58.989 17.0305 59.7401 18.1074 60.4641L26.9804 53.0209Z" fill="#E62058"/>
<path d="M41.0987 60.4456C40.601 60.423 40.1078 60.3732 39.6237 60.3144L38.2617 68.0336C39.1938 68.1241 40.1395 68.1739 41.0987 68.1965V60.4456Z" fill="#E62058"/>
<path d="M34.7032 59.0065C34.2462 58.8165 33.7983 58.5993 33.3594 58.373L28.9658 65.9837C29.9024 66.3095 30.8617 66.5991 31.839 66.8615L34.6987 59.0065H34.7032Z" fill="#E62058"/>
<path d="M37.8404 60.0037C37.3562 59.8951 36.8766 59.7729 36.406 59.6281L33.6143 67.2976C34.5464 67.5012 35.4966 67.6822 36.4603 67.8225L37.8359 60.0082L37.8404 60.0037Z" fill="#E62058"/>
</svg>
