<svg width="410" height="106" viewBox="0 0 410 106" fill="none" xmlns="http://www.w3.org/2000/svg">
<g clip-path="url(#clip0_48_10572)">
<path fill-rule="evenodd" clip-rule="evenodd" d="M178.381 46.8916C178.473 46.4059 178.566 45.9187 178.952 45.54L178.921 40.7911C178.556 40.2853 178.419 39.7007 178.281 39.1153C178.198 38.7617 178.115 38.4077 177.982 38.0707C175.56 31.9696 169.494 28.0401 162.296 28.0401C159.454 28.0328 156.609 28.0351 153.762 28.0375C148.859 28.0415 143.951 28.0456 139.049 28.0003C137.736 27.9884 137.458 28.3344 137.458 29.627C137.489 45.1149 137.489 60.6147 137.489 76.0908V76.1966C137.503 76.4443 137.503 76.6926 137.489 76.9404C137.402 77.6085 137.708 77.7676 138.337 77.7676C139.776 77.7199 141.224 77.6722 142.66 77.7676C143.762 77.8432 144.064 77.5369 144.064 76.3955C144.034 73.7954 144.037 71.1978 144.039 68.5989V68.5982C144.042 65.6476 144.045 62.6951 144 59.7348C143.98 58.4422 144.378 58.2274 145.571 58.2274C151.283 58.291 156.994 58.2791 162.709 58.2513C169.841 58.2155 176.025 53.928 178.221 47.5644C178.294 47.3482 178.338 47.1199 178.381 46.8916ZM154.202 52.1183V52.178C153.238 52.178 152.275 52.1752 151.311 52.1724H151.309C149.241 52.1663 147.171 52.1603 145.102 52.182C144.263 52.1939 144.02 51.9553 144.02 51.1081C144.06 45.8144 144.068 40.5048 144.02 35.1991C144.02 34.2406 144.334 34.0656 145.213 34.0656C147.831 34.0801 150.451 34.0781 153.072 34.0761C156.217 34.0738 159.363 34.0714 162.506 34.0974C167.124 34.1332 170.926 36.8417 172.052 40.7752C173.571 46.0689 169.594 51.6848 163.887 52.0825C161.676 52.2276 159.452 52.19 157.228 52.1524C156.219 52.1354 155.21 52.1183 154.202 52.1183Z" fill="#262C32"/>
<path d="M4.99147 72.9136C3.3997 74.567 1.80881 76.2195 0.0315564 77.6921L-0.000244141 77.9943C0.794662 77.9943 1.58957 77.9877 2.38448 77.9811L2.38611 77.9811C3.97701 77.9678 5.56791 77.9546 7.15881 77.9943C7.59454 78.0217 8.0308 77.9496 8.43457 77.7836C8.83835 77.6175 9.19908 77.3618 9.48948 77.0358C13.472 72.9525 17.4798 68.893 21.5128 64.8575C26.4843 59.874 32.5297 59.866 37.4933 64.8296C40.0089 67.3354 42.5125 69.8576 45.0169 72.3807L45.0182 72.382L45.0286 72.3925C46.6067 73.9823 48.1852 75.5725 49.7672 77.1591C49.8452 77.2336 49.9179 77.3144 49.9904 77.395C50.2431 77.6759 50.4937 77.9545 50.9604 77.9545H58.7716L59.062 77.5012C58.3307 76.8091 57.5965 76.12 56.862 75.4307C55.5114 74.1632 54.1602 72.895 52.8257 71.6069C51.1556 69.9984 49.5439 68.3289 47.9321 66.6594C45.1681 63.7964 42.4042 60.9335 39.3467 58.3785C34.0291 53.9359 25.1003 53.9519 19.7389 58.3785C16.9835 60.6532 14.5081 63.2193 12.0322 65.7859C10.6163 67.2536 9.20022 68.7216 7.73156 70.1353C6.79522 71.04 5.8932 71.9769 4.99147 72.9136Z" fill="#262C32"/>
<path d="M110.38 52.4391L110.369 52.4269L110.368 52.426C109.364 51.3119 108.392 50.2344 107.406 49.1593C107.312 49.0835 107.234 48.9892 107.178 48.8822C107.122 48.7753 107.089 48.658 107.08 48.5376C107.071 48.4172 107.087 48.2963 107.126 48.1822C107.166 48.0682 107.228 47.9635 107.31 47.8746C111.136 42.0201 106.912 34.4753 99.5307 34.2366C95.6941 34.1131 91.8511 34.1334 88.0078 34.1537C85.7871 34.1654 83.5664 34.1771 81.3467 34.1611C80.412 34.1611 80.3285 34.5588 80.3325 35.3145C80.3523 40.5724 80.3643 45.8343 80.3325 51.0922C80.3325 52.0468 80.6705 52.2496 81.5256 52.2496H81.5273C85.7028 52.2496 89.8784 52.2496 94.046 52.3371C95.4935 52.3655 96.9178 52.7056 98.2218 53.3343C99.5259 53.963 100.679 54.8655 101.603 55.9803C106.36 61.4984 111.084 67.0432 115.807 72.5882L115.809 72.59L115.817 72.5993C117.14 74.1526 118.463 75.7059 119.787 77.2585C119.861 77.4104 119.918 77.5706 119.954 77.7358H112.095C111.671 77.7358 111.46 77.4479 111.251 77.1622C111.195 77.0863 111.14 77.0105 111.081 76.9404C110.118 75.8324 109.153 74.7278 108.189 73.6236L108.186 73.6207C105.166 70.1635 102.151 66.7113 99.2244 63.1791C96.4165 59.7865 92.9642 58.1479 88.5693 58.3189C86.2864 58.4104 83.9955 58.3905 81.7125 58.3189C80.6466 58.2831 80.2847 58.5058 80.3006 59.6751C80.3354 62.1852 80.3314 64.6952 80.3275 67.2052C80.3229 70.152 80.3183 73.0987 80.3762 76.0455C80.4041 77.5449 79.9507 77.9148 78.5626 77.7716C77.3718 77.664 76.1738 77.664 74.9831 77.7716C73.9768 77.8472 73.7302 77.4853 73.7421 76.5188C73.777 73.4756 73.7715 70.4302 73.7661 67.3843C73.764 66.2624 73.762 65.1402 73.762 64.0183V32.3196C73.762 29.1378 74.8757 28.0282 78.0654 28.0282C80.3684 28.0282 82.6714 28.0255 84.9742 28.0229C89.5795 28.0175 94.1841 28.0122 98.787 28.0282C106.26 28.06 112.648 32.4747 114.636 39.061C116.267 44.4264 114.831 49.0996 111.152 53.2956C110.892 53.0074 110.635 52.722 110.38 52.4391Z" fill="#262C32"/>
<path d="M8.06165 28.0241H0.206574C0.373811 28.2252 0.494888 28.3761 0.592589 28.4978C0.7133 28.6483 0.798328 28.7543 0.89065 28.8554C2.3708 30.3502 3.84958 31.8464 5.32835 33.3426C9.46818 37.5311 13.608 41.7197 17.7781 45.878C19.5764 47.7436 21.8033 49.1417 24.265 49.9507C30.9945 52.0427 36.7894 50.3484 41.6973 45.4683C46.0082 41.1762 50.2774 36.8447 54.5473 32.5126C55.7138 31.3291 56.8803 30.1456 58.0478 28.9628C58.1024 28.9072 58.1704 28.8558 58.2401 28.8031C58.4749 28.6257 58.7295 28.4332 58.5608 28.0162C57.7968 28.0162 57.0331 28.0224 56.2699 28.0286C54.7449 28.0409 53.2216 28.0533 51.7001 28.0162C51.3113 27.9928 50.9223 28.0576 50.5621 28.2057C50.202 28.3538 49.8799 28.5813 49.62 28.8713C47.2412 31.2926 44.847 33.6984 42.4532 36.1038C40.8206 37.7444 39.1881 39.3848 37.5609 41.0297C32.6172 46.0291 26.5598 46.0689 21.5724 41.0814C18.8454 38.3572 16.1313 35.6145 13.4214 32.8759C12.1512 31.5924 10.882 30.3098 9.61279 29.0304C9.52907 28.9467 9.44951 28.8578 9.36988 28.7688C9.03719 28.397 8.70349 28.0241 8.06165 28.0241Z" fill="#262C32"/>
</g>
<defs>
<clipPath id="clip0_48_10572">
<rect width="410" height="106" fill="white"/>
</clipPath>
</defs>
</svg>
